<svg width="393" height="262" viewBox="0 0 393 262" fill="none" xmlns="http://www.w3.org/2000/svg">
<path d="M393 261.829C393 261.927 305.022 262 196.524 262C88.0259 262 0 261.927 0 261.829C0 261.73 87.9596 261.657 196.524 261.657C305.089 261.657 393 261.737 393 261.829Z" fill="white"/>
<path d="M233.973 44.7793L236.722 37.8313C234.56 32.24 234.391 25.9676 236.247 20.2467C238.103 14.5258 241.85 9.77015 246.753 6.91438C251.655 4.05861 257.358 3.30922 262.741 4.81348C268.123 6.31775 272.796 9.9669 275.841 15.0438C278.886 20.1206 280.083 26.2581 279.196 32.2499C278.31 38.2418 275.404 43.6547 271.05 47.425C266.696 51.1952 261.209 53.0502 255.666 52.6252C250.124 52.2002 244.928 49.5261 241.099 45.1284L233.973 44.7793Z" fill="white"/>
<path d="M233.972 44.7793H234.455L235.835 44.8254L241.11 45.023L241.013 45.1942C241.006 45.1819 241.001 45.168 240.999 45.1534C240.997 45.1389 240.997 45.124 241.001 45.1097C241.004 45.0954 241.01 45.0821 241.019 45.0705C241.027 45.059 241.038 45.0495 241.05 45.0428C241.068 45.0273 241.09 45.0188 241.113 45.0188C241.136 45.0188 241.158 45.0273 241.176 45.0428C243.722 47.9266 246.88 50.08 250.369 51.3125C252.624 52.105 254.982 52.4898 257.35 52.4518C261.297 52.4231 265.163 51.2353 268.545 49.0129C271.927 46.7904 274.7 43.6153 276.572 39.82C278.445 36.0247 279.349 31.7491 279.189 27.4411C279.029 23.1331 277.812 18.9513 275.664 15.334L274.911 14.1024L274.061 12.9565C273.494 12.2097 272.89 11.4974 272.252 10.8227C270.959 9.51785 269.53 8.38184 267.996 7.43754C265.023 5.6214 261.71 4.56956 258.309 4.36194C254.579 4.16154 250.864 4.99529 247.509 6.78558C244.154 8.57587 241.268 11.2645 239.12 14.6011C236.972 17.9377 235.632 21.8139 235.224 25.8687C234.816 29.9235 235.354 34.0251 236.788 37.7917V37.8839C235.883 40.0902 235.184 41.7959 234.702 42.9814L234.153 44.2986C234.027 44.6015 233.948 44.7661 233.948 44.7661C233.948 44.7661 233.996 44.6213 234.105 44.3249C234.213 44.0285 234.388 43.5675 234.605 43.0077C235.064 41.7893 235.733 40.0441 236.601 37.7786V37.8642C235.136 34.1439 234.547 30.0819 234.889 26.0492C235.441 19.7779 238.176 13.9777 242.53 9.84632C246.884 5.71491 252.524 3.56777 258.285 3.84824C263.591 4.15804 268.631 6.48816 272.53 10.4341C273.191 11.1226 273.815 11.8526 274.398 12.6206L275.267 13.7863L276.038 15.0442C277.849 18.1016 279.013 21.5611 279.447 25.1715C279.88 28.7819 279.573 32.4525 278.546 35.9167C277.519 39.3809 275.798 42.5517 273.51 45.1988C271.221 47.8459 268.421 49.9029 265.314 51.2203C262.771 52.2917 260.07 52.8431 257.344 52.847C254.941 52.8718 252.55 52.4646 250.267 51.6418C246.74 50.3671 243.561 48.1483 241.02 45.1876L241.188 45.0559C241.195 45.0689 241.199 45.0831 241.2 45.0977C241.201 45.1124 241.2 45.1271 241.196 45.1412C241.192 45.1553 241.186 45.1684 241.177 45.1797C241.168 45.1911 241.158 45.2005 241.146 45.2074C241.128 45.2131 241.11 45.2131 241.092 45.2074L235.751 44.8649L234.406 44.7727L233.972 44.7793Z" fill="#263238"/>
<path d="M252.998 28.5122C252.999 29.0429 252.856 29.5621 252.587 30.0039C252.318 30.4457 251.935 30.7903 251.486 30.994C251.037 31.1977 250.544 31.2513 250.067 31.1481C249.591 31.0449 249.153 30.7894 248.809 30.4142C248.466 30.0389 248.232 29.5607 248.138 29.0401C248.043 28.5196 248.092 27.9801 248.279 27.49C248.465 27 248.781 26.5814 249.185 26.2874C249.589 25.9933 250.065 25.8371 250.55 25.8384C251.199 25.8401 251.821 26.1224 252.279 26.6235C252.738 27.1245 252.996 27.8036 252.998 28.5122Z" fill="#263238"/>
<path d="M259.889 28.5122C259.89 29.0427 259.747 29.5615 259.478 30.0032C259.209 30.4449 258.826 30.7894 258.378 30.9933C257.93 31.1972 257.436 31.2512 256.96 31.1486C256.484 31.0459 256.046 30.7911 255.702 30.4165C255.358 30.0419 255.124 29.5643 255.029 29.0442C254.934 28.524 254.982 27.9848 255.168 27.4946C255.353 27.0044 255.668 26.5854 256.071 26.2906C256.475 25.9958 256.949 25.8384 257.435 25.8384C258.085 25.8384 258.708 26.1199 259.168 26.6211C259.628 27.1224 259.887 27.8025 259.889 28.5122Z" fill="#263238"/>
<path d="M266.779 28.5122C266.78 29.0427 266.637 29.5615 266.369 30.0032C266.1 30.4449 265.717 30.7894 265.269 30.9933C264.82 31.1972 264.327 31.2512 263.851 31.1486C263.374 31.0459 262.937 30.7911 262.593 30.4165C262.249 30.0419 262.015 29.5643 261.92 29.0442C261.824 28.524 261.873 27.9848 262.058 27.4946C262.244 27.0044 262.558 26.5854 262.962 26.2906C263.365 25.9958 263.84 25.8384 264.326 25.8384C264.975 25.8384 265.598 26.1199 266.058 26.6211C266.518 27.1224 266.778 27.8025 266.779 28.5122Z" fill="#263238"/>
<path d="M211.62 29.5116C212.998 29.6162 214.362 29.1559 215.446 28.2205C216.53 27.2851 217.256 25.9418 217.482 24.453C217.708 22.9641 217.418 21.4367 216.668 20.1691C215.919 18.9015 214.764 17.9847 213.428 17.5978C214.231 16.6033 214.726 15.358 214.844 14.0385C214.962 12.7191 214.697 11.3925 214.085 10.2473C213.474 9.10197 212.548 8.19615 211.439 7.65837C210.33 7.12059 209.094 6.97819 207.906 7.25139C207.797 5.9489 207.381 4.69962 206.697 3.62583C206.014 2.55204 205.087 1.69052 204.007 1.12561C202.927 0.560694 201.732 0.311731 200.537 0.403096C199.343 0.49446 198.191 0.923022 197.194 1.64683C195.795 0.524932 194.092 -0.0534048 192.358 0.0038806C190.623 0.061166 188.955 0.750778 187.621 1.96295C186.441 1.78242 185.239 2.02339 184.194 2.64995C183.149 3.27652 182.318 4.25511 181.824 5.43987C181.33 6.62463 181.199 7.95211 181.452 9.22444C181.705 10.4968 182.327 11.6458 183.226 12.5003" fill="#263238"/>
<path d="M186.71 8.01539L187.916 7.94953C193.833 7.62733 199.645 9.75301 204.192 13.9029C208.739 18.0529 211.688 23.9223 212.451 30.3414C213.934 42.7163 215.423 56.4082 215.652 63.0797C216.122 76.91 203.595 79.7156 203.595 79.7156L205.404 96.2395L198.646 104.248L174.701 96.8651L169.276 36.8812C167.491 22.5899 173.604 9.56307 186.71 8.01539Z" fill="#C17560"/>
<path d="M203.705 79.6628C197.849 79.9785 192.033 78.4541 186.946 75.2701C186.946 75.2701 191.449 84.9513 204 83.0216L203.705 79.6628Z" fill="#7C4236"/>
<path d="M206.718 45.0081C206.745 45.5206 206.588 46.0244 206.281 46.4128C205.974 46.8013 205.54 47.0439 205.072 47.0892C204.844 47.1213 204.612 47.1033 204.39 47.0362C204.168 46.9692 203.961 46.8544 203.78 46.6986C203.599 46.5428 203.449 46.3491 203.337 46.1289C203.226 45.9088 203.156 45.6665 203.131 45.4164C203.103 44.9028 203.259 44.3973 203.566 44.0075C203.873 43.6176 204.308 43.3741 204.777 43.3287C205.006 43.2957 205.239 43.3132 205.461 43.3804C205.684 43.4475 205.892 43.5628 206.073 43.7194C206.254 43.8761 206.404 44.0709 206.515 44.2922C206.626 44.5136 206.695 44.757 206.718 45.0081Z" fill="#263238"/>
<path d="M210.052 37.217C209.841 37.487 208.424 36.4531 206.483 36.5584C204.542 36.6638 203.168 37.8097 202.951 37.5595C202.842 37.4475 203.047 36.9733 203.644 36.4465C204.454 35.7641 205.437 35.3729 206.459 35.3269C207.47 35.2678 208.471 35.5632 209.317 36.1699C209.937 36.6375 210.161 37.0985 210.052 37.217Z" fill="#263238"/>
<path d="M190.128 45.4757C190.155 45.9882 189.999 46.492 189.691 46.8804C189.384 47.2689 188.951 47.5115 188.483 47.5568C188.254 47.5889 188.021 47.5707 187.799 47.5032C187.577 47.4357 187.369 47.3203 187.188 47.1638C187.007 47.0073 186.857 46.8129 186.746 46.592C186.635 46.3711 186.565 46.1281 186.542 45.8774C186.515 45.3649 186.671 44.8611 186.979 44.4727C187.286 44.0842 187.719 43.8416 188.187 43.7963C188.416 43.7633 188.649 43.7808 188.872 43.848C189.094 43.9151 189.302 44.0304 189.483 44.187C189.664 44.3437 189.815 44.5385 189.926 44.7598C190.036 44.9812 190.105 45.2246 190.128 45.4757Z" fill="#263238"/>
<path d="M190.99 38.6461C190.779 38.9161 189.362 37.8888 187.421 37.9875C185.48 38.0863 184.106 39.2323 183.883 38.982C183.774 38.8766 183.979 38.4024 184.582 37.8756C185.391 37.1921 186.375 36.8007 187.397 36.756C188.407 36.6954 189.408 36.9884 190.255 37.5924C190.87 38.0732 191.099 38.5276 190.99 38.6461Z" fill="#263238"/>
<path d="M198.755 53.9912C198.755 53.8727 199.96 53.5763 201.877 53.2009C202.372 53.1153 202.836 52.9836 202.902 52.6082C202.915 52.047 202.774 51.4945 202.498 51.021C201.974 49.7038 201.419 48.3867 200.847 46.9773C198.544 41.2212 196.85 36.4729 197.061 36.3741C197.272 36.2753 199.315 40.859 201.618 46.6217L203.21 50.6917C203.55 51.3296 203.676 52.0773 203.565 52.8058C203.5 52.9999 203.395 53.1757 203.26 53.3204C203.124 53.465 202.961 53.5749 202.782 53.6422C202.512 53.7366 202.232 53.7941 201.95 53.8134C199.984 54.0373 198.767 54.1098 198.755 53.9912Z" fill="#263238"/>
<path d="M192.305 30.4006C192.076 30.9473 190.382 30.4533 188.332 30.4928C186.282 30.5324 184.576 31 184.359 30.4533C184.269 30.1899 184.613 29.6828 185.33 29.2152C186.25 28.6475 187.288 28.346 188.344 28.3393C189.399 28.3215 190.439 28.6102 191.358 29.1757C192.082 29.6367 192.407 30.1372 192.305 30.4006Z" fill="#263238"/>
<path d="M209.75 28.4644C209.365 28.9715 207.737 28.5566 205.814 28.6422C203.891 28.7278 202.269 29.1559 201.871 28.6422C201.697 28.4051 201.932 27.9046 202.619 27.4107C203.578 26.7909 204.67 26.4592 205.784 26.4491C206.893 26.3989 207.994 26.674 208.973 27.246C209.672 27.74 209.919 28.2207 209.75 28.4644Z" fill="#263238"/>
<path d="M210.962 24.0585C210.962 24.0585 207.237 15.5957 203.33 13.7846C198.604 11.5915 196.868 17.2421 192.401 16.1357C187.934 15.0293 183.425 12.9284 179.108 16.8799C174.376 21.2134 176.812 23.9465 176.781 30.0516C176.679 54.9396 172.851 62.184 171.139 50.56C170.952 49.2823 167.649 48.4393 166.919 43.0521C165.979 36.0711 165.34 27.5622 166.551 22.5042C167.564 18.2432 169.626 15.2203 173.412 11.8088C179.38 6.42816 187.88 5.88153 193.709 6.1779C199.538 6.47426 210.998 13.205 210.962 24.0585Z" fill="#263238"/>
<path d="M171.91 50.178C171.872 49.6721 171.74 49.1799 171.523 48.7312C171.306 48.2824 171.008 47.8865 170.647 47.5675C170.285 47.2485 169.868 47.013 169.421 46.8753C168.974 46.7376 168.506 46.7006 168.045 46.7665C165.7 47.1419 163.144 48.7423 163.542 54.0571C164.248 63.4748 172.76 60.7549 172.754 60.4849C172.747 60.2148 172.241 54.1163 171.91 50.178Z" fill="#C17560"/>
<path d="M170.614 57.1129C170.572 57.1129 170.469 57.2381 170.228 57.3895C169.883 57.5881 169.481 57.633 169.107 57.5147C168.166 57.2315 167.298 55.7167 167.117 54.0242C167.031 53.2198 167.113 52.4044 167.359 51.6401C167.417 51.3378 167.542 51.0556 167.722 50.818C167.903 50.5804 168.134 50.3946 168.396 50.2768C168.565 50.213 168.749 50.2148 168.917 50.282C169.085 50.3492 169.226 50.4776 169.318 50.6456C169.45 50.9025 169.408 51.0935 169.456 51.1066C169.505 51.1198 169.631 50.9288 169.529 50.5468C169.465 50.3179 169.331 50.12 169.149 49.9871C168.896 49.8132 168.591 49.7541 168.299 49.8224C167.951 49.93 167.633 50.1337 167.378 50.414C167.122 50.6943 166.937 51.0417 166.84 51.4228C166.533 52.2714 166.421 53.1897 166.515 54.0966C166.714 55.9868 167.72 57.6859 169.01 57.9691C169.248 58.0226 169.493 58.0166 169.728 57.9516C169.963 57.8865 170.181 57.7642 170.367 57.5937C170.614 57.3369 170.668 57.1261 170.614 57.1129Z" fill="#7C4236"/>
<path d="M171.272 31.8891C172.429 32.6662 173.653 33.4631 175.009 33.5355C176.366 33.608 177.873 32.6794 178.023 31.2042C178.096 30.5456 177.915 29.7882 178.289 29.2284C178.735 28.5698 179.609 28.741 180.338 28.7871C182.864 28.9386 185.655 25.7511 186.174 23.0509C186.526 23.5335 187.031 23.8541 187.589 23.9492C188.147 24.0443 188.718 23.9071 189.188 23.5646C189.961 22.9868 190.634 22.2645 191.177 21.4307C191.895 20.4429 192.92 19.5406 194.071 19.6526C194.71 19.7184 195.325 20.1004 195.964 20.0016C197.097 19.8304 197.585 18.3486 197.7 17.1104C197.815 15.8723 197.881 14.43 198.815 13.7121C199.75 12.9943 200.847 13.3367 201.896 13.4487C202.945 13.5606 204.307 13.2182 204.5 12.092C204.531 11.7903 204.506 11.4847 204.427 11.1938C204.347 10.9028 204.214 10.6326 204.036 10.3994C203.284 9.29382 202.212 8.49744 200.995 8.13894C199.778 7.78044 198.485 7.88076 197.326 8.42369C196.824 6.87995 195.915 5.53328 194.713 4.55365C193.511 3.57402 192.07 3.00534 190.573 2.91938C189.075 2.83343 187.588 3.23404 186.299 4.07067C185.009 4.9073 183.976 6.14245 183.328 7.62021C182.37 6.76132 181.236 6.16787 180.022 5.89027C178.809 5.61267 177.552 5.65912 176.358 6.02567C175.165 6.39221 174.07 7.06803 173.166 7.99573C172.263 8.92343 171.578 10.0756 171.169 11.3544C170.095 11.1043 168.977 11.206 167.956 11.6466C166.934 12.0871 166.055 12.8471 165.427 13.8313C164.799 14.8155 164.45 15.9803 164.425 17.1797C164.4 18.3792 164.699 19.5601 165.286 20.5746C163.778 21.6283 162.525 23.3867 162.579 25.3427C162.633 27.2987 164.466 29.1494 166.196 28.5369C165.885 29.3239 165.86 30.2106 166.125 31.0172C166.391 31.8238 166.927 32.49 167.625 32.881C168.323 33.272 169.131 33.3585 169.886 33.123C170.64 32.8874 171.284 32.3475 171.688 31.6125" fill="#263238"/>
<path d="M198.122 11.2095C198.129 11.2685 198.129 11.3282 198.122 11.3873C198.118 11.5569 198.106 11.7262 198.086 11.8944C198.002 12.5404 197.819 13.1662 197.543 13.745C197.112 14.6638 196.494 15.4616 195.735 16.0764C194.737 16.9218 193.513 17.3847 192.25 17.3936L192.389 17.1763C192.689 18.0279 192.67 18.9746 192.335 19.8106C191.985 20.6781 191.522 21.4856 190.96 22.2078C190.691 22.6204 190.384 23.0021 190.044 23.3472C189.65 23.6731 189.188 23.8879 188.7 23.9729C188.194 24.0817 187.672 24.0533 187.179 23.8902C186.686 23.7272 186.237 23.4344 185.872 23.0377L186.186 22.9191C186.111 23.9054 185.848 24.8637 185.414 25.7325C184.98 26.6013 184.385 27.3613 183.666 27.9639C182.876 28.6724 181.896 29.0815 180.875 29.1296C179.913 29.1337 178.957 28.96 178.047 28.6159L178.277 28.4908C177.881 29.6573 177.224 30.6967 176.366 31.5137C175.974 31.922 175.504 32.2292 174.99 32.4127C174.476 32.5963 173.93 32.6514 173.394 32.574C172.477 32.4089 171.624 31.9543 170.94 31.2662C170.257 30.5781 169.773 29.6866 169.547 28.7015L169.746 28.7937C168.865 29.3775 167.825 29.6102 166.805 29.4523C166.045 29.338 165.32 29.0312 164.689 28.5566C164.292 28.2564 163.947 27.8818 163.67 27.4502C163.57 27.305 163.489 27.1454 163.429 26.976C163.79 27.5428 164.243 28.0318 164.767 28.4183C165.388 28.8569 166.094 29.132 166.829 29.2218C167.797 29.3547 168.777 29.1223 169.608 28.5632L169.765 28.4512L169.807 28.6488C170.03 29.5631 170.49 30.3875 171.131 31.0231C171.773 31.6586 172.569 32.0783 173.424 32.2315C173.912 32.2941 174.407 32.2373 174.873 32.0653C175.339 31.8933 175.765 31.6104 176.118 31.2371C176.928 30.4564 177.549 29.4703 177.927 28.3656L177.981 28.1878L178.15 28.2471C179.019 28.5735 179.932 28.7382 180.851 28.7344C181.794 28.6892 182.698 28.3075 183.425 27.6478C184.108 27.0828 184.676 26.3678 185.091 25.5489C185.506 24.73 185.76 23.8253 185.836 22.8928L185.866 22.4449L186.15 22.7808C186.474 23.1292 186.872 23.3861 187.307 23.5295C187.743 23.6729 188.204 23.6985 188.651 23.604C189.089 23.5344 189.503 23.3465 189.857 23.0574C190.181 22.7401 190.472 22.3845 190.725 21.9971C191.272 21.303 191.725 20.5268 192.069 19.692C192.224 19.323 192.311 18.9242 192.324 18.5184C192.338 18.1127 192.278 17.708 192.148 17.3277L192.069 17.1038H192.286C193.49 17.1162 194.664 16.7001 195.632 15.9184C196.378 15.3367 196.996 14.5808 197.441 13.7055C197.8 12.9234 198.03 12.0786 198.122 11.2095Z" fill="#455A64"/>
<path d="M198.658 61.2685C198.592 60.9195 196.494 61.5254 194.529 59.9513C192.564 58.3773 192.202 55.9076 191.907 55.9998C191.768 55.9998 191.629 56.6584 191.852 57.7056C192.161 59.0531 192.893 60.2396 193.92 61.0578C194.91 61.8406 196.139 62.1757 197.35 61.993C198.248 61.8283 198.707 61.4266 198.658 61.2685Z" fill="#263238"/>
<path d="M148.002 261.096C148.002 261.096 150.908 226.89 157.72 216.181L239.573 219.803L243.612 260.346L148.002 261.096Z" fill="#263238"/>
<path d="M173.797 86.69C173.797 86.69 175.377 95.8311 196.536 101.719C196.536 101.719 206.242 94.8367 204.271 85.7811L228.722 101.739L234.569 176.916L242.406 229.86C218.172 243.552 183.931 240.305 151.324 229.517L160.794 196.812L159.986 183.502L149.34 112.823L168.402 91.9982L173.797 86.69Z" fill="#E0E0E0"/>
<path d="M219.193 113.282L211.693 113.827C210.726 113.898 209.995 114.811 210.059 115.867L210.062 115.913C210.126 116.969 210.962 117.768 211.929 117.698L219.429 117.152C220.396 117.082 221.128 116.169 221.063 115.112L221.06 115.067C220.996 114.01 220.16 113.211 219.193 113.282Z" fill="#F18701"/>
<path d="M175.209 163.494C175.209 163.56 174.311 163.303 172.846 163.224C171.988 163.183 171.129 163.223 170.278 163.343C169.241 163.505 168.22 163.772 167.227 164.14C166.242 164.533 165.293 165.029 164.394 165.621C163.663 166.109 162.973 166.667 162.332 167.288C161.241 168.355 160.693 169.165 160.645 169.119C160.744 168.909 160.865 168.712 161.006 168.532C161.151 168.3 161.312 168.079 161.488 167.874C161.706 167.597 161.938 167.333 162.182 167.083C162.815 166.426 163.506 165.837 164.243 165.325C165.154 164.708 166.119 164.194 167.125 163.791C168.138 163.409 169.184 163.147 170.248 163.007C171.114 162.898 171.989 162.882 172.858 162.961C173.192 162.983 173.524 163.027 173.853 163.092C174.103 163.127 174.351 163.182 174.594 163.257C174.809 163.303 175.016 163.383 175.209 163.494Z" fill="#7C4236"/>
<path d="M204.271 85.7679C204.741 85.7679 221.053 90.76 223.477 91.5437C223.603 91.5898 229.987 94.0134 230.108 94.0332C231.603 94.2439 240.754 98.0242 244.455 106.955C247.801 115.022 253.016 133.957 253.016 133.957L227.974 131.382L229.143 114.351L207.755 93.4075L204.271 85.7679Z" fill="#E0E0E0"/>
<path d="M227.866 110.57C227.938 110.85 227.983 111.137 227.999 111.426C228.065 111.986 228.137 112.796 228.204 113.797C228.348 115.773 228.457 118.572 228.403 121.634C228.348 124.697 228.137 127.47 227.926 129.465C227.818 130.459 227.715 131.27 227.631 131.823C227.606 132.111 227.553 132.396 227.474 132.672C227.458 132.382 227.47 132.091 227.51 131.803C227.565 131.177 227.625 130.387 227.703 129.439C227.86 127.463 228.035 124.684 228.089 121.628C228.143 118.572 228.089 115.813 227.987 113.81C227.938 112.862 227.902 112.065 227.878 111.44C227.848 111.151 227.844 110.86 227.866 110.57Z" fill="#263238"/>
<path d="M229.831 95.1C229.732 95.68 229.597 96.2521 229.427 96.8124C228.735 99.5471 228.316 102.356 228.179 105.19C228.178 105.78 228.138 106.37 228.059 106.955C227.962 106.37 227.927 105.776 227.956 105.183C227.967 102.316 228.393 99.4687 229.216 96.7465C229.361 96.1729 229.567 95.6202 229.831 95.1Z" fill="#263238"/>
<path d="M222.808 120.357L177.596 123.136C176.985 123.174 176.413 123.47 175.999 123.962C175.586 124.454 175.365 125.103 175.383 125.77L176.933 193.144C176.944 193.615 177.042 194.079 177.221 194.509C177.399 194.938 177.655 195.324 177.973 195.643C178.29 195.962 178.663 196.209 179.07 196.368C179.476 196.527 179.908 196.595 180.339 196.568L224.581 193.822C225.419 193.764 226.203 193.351 226.766 192.671C227.329 191.99 227.626 191.097 227.595 190.18L225.407 122.945C225.396 122.587 225.32 122.235 225.182 121.91C225.045 121.585 224.85 121.293 224.608 121.052C224.365 120.811 224.081 120.625 223.772 120.505C223.463 120.386 223.136 120.336 222.808 120.357Z" fill="#263238"/>
<g opacity="0.3">
<path d="M162.483 194.52C167.203 197.365 172.984 196.937 178.289 195.883C185.361 194.484 192.246 192.128 198.786 188.869C202.813 186.894 206.773 184.49 211.132 183.647C218.221 182.27 228.011 183.41 235.088 181.809L234.672 175.685L209.769 172.346L162.483 194.52Z" fill="black"/>
</g>
<path d="M193.239 122.912C193.239 122.912 191.286 119.764 192.076 118.796C192.612 118.137 206.092 117.202 206.984 117.966C207.502 118.414 206.459 121.918 206.459 121.918L193.239 122.912Z" fill="#E0E0E0"/>
<path d="M193.238 122.912C193.324 122.882 193.414 122.866 193.504 122.866L194.251 122.78L197.012 122.524L206.447 121.746L206.314 121.858C206.562 121.057 206.764 120.238 206.917 119.408C207.005 119.007 207.019 118.591 206.959 118.184C206.959 118.131 206.923 118.137 206.917 118.105L206.832 118.058C206.741 118.029 206.649 118.005 206.555 117.986C206.362 117.986 206.157 117.927 205.952 117.914C203.619 117.82 201.283 117.862 198.953 118.039C196.795 118.177 194.854 118.342 193.251 118.592C193.046 118.625 192.853 118.658 192.648 118.704C192.481 118.733 192.318 118.788 192.165 118.868C192.08 119.014 192.024 119.179 192.001 119.35C191.978 119.522 191.989 119.696 192.033 119.863C192.152 120.446 192.338 121.01 192.587 121.542C192.786 121.99 192.961 122.326 193.076 122.557C193.144 122.669 193.202 122.788 193.251 122.912C193.164 122.814 193.087 122.706 193.021 122.589C192.889 122.372 192.696 122.043 192.479 121.602C192.208 121.066 192.005 120.492 191.876 119.896C191.822 119.698 191.809 119.49 191.837 119.287C191.865 119.083 191.934 118.888 192.039 118.717C192.221 118.589 192.427 118.508 192.642 118.48C192.835 118.427 193.034 118.388 193.245 118.348C194.866 118.065 196.807 117.881 198.965 117.723C201.308 117.523 203.659 117.473 206.007 117.571C206.218 117.571 206.429 117.611 206.646 117.65C206.756 117.67 206.865 117.699 206.971 117.736C207.036 117.764 207.097 117.802 207.152 117.848C207.206 117.908 207.249 117.98 207.278 118.058C207.373 118.523 207.373 119.004 207.278 119.468C207.126 120.313 206.925 121.147 206.676 121.964L206.646 122.069H206.543L197.03 122.728L194.287 122.886L193.558 122.919C193.452 122.93 193.344 122.928 193.238 122.912Z" fill="#263238"/>
<path d="M221.597 123.571H221.446L220.994 123.61L219.264 123.729L212.892 124.111L191.871 125.23L177.903 125.942L178.036 125.79C178.036 130.921 178.036 135.221 178.036 138.303C178.036 139.798 178.036 140.977 178.036 141.82C178.036 142.209 178.036 142.512 178.036 142.749C178.05 142.854 178.05 142.96 178.036 143.065C178.029 142.96 178.029 142.854 178.036 142.749C178.036 142.518 178.036 142.209 178.036 141.82C178.036 140.977 178 139.798 177.976 138.303C177.94 135.254 177.891 130.947 177.831 125.79V125.645H177.903L191.859 124.888L212.868 123.887L219.24 123.617L220.976 123.558H221.422C221.481 123.55 221.54 123.554 221.597 123.571Z" fill="#455A64"/>
<path d="M205.742 121.378C205.504 121.44 205.262 121.477 205.018 121.49L203.035 121.681C201.359 121.825 199.044 122.003 196.488 122.181C193.932 122.359 191.611 122.497 189.929 122.583L187.94 122.668C187.697 122.693 187.453 122.693 187.21 122.668C187.445 122.592 187.689 122.55 187.934 122.543C188.398 122.491 189.079 122.425 189.917 122.352C191.593 122.201 193.908 122.023 196.464 121.845C199.02 121.667 201.341 121.529 203.023 121.443L205.012 121.364C205.255 121.335 205.5 121.339 205.742 121.378Z" fill="#263238"/>
<path d="M191.763 122.161L192.058 126.291L208.003 125.408L207.768 121.147L191.763 122.161Z" fill="#E0E0E0"/>
<path d="M191.768 122.161C191.863 122.138 191.96 122.125 192.057 122.122L192.943 122.043L196.289 121.779C199.146 121.569 203.173 121.279 207.743 120.976H207.893V121.141C207.966 122.458 208.044 123.88 208.129 125.303V125.546H207.972C201.389 125.909 195.572 126.205 192.021 126.363H191.93V126.271C191.858 124.954 191.804 123.94 191.762 123.189L191.725 122.392C191.717 122.304 191.717 122.216 191.725 122.128C191.744 122.226 191.756 122.325 191.762 122.425L191.846 123.241C191.912 123.979 192.003 124.993 192.111 126.251L192.021 126.159C195.559 125.922 201.383 125.566 207.96 125.204L207.815 125.382V125.283C207.737 123.861 207.658 122.464 207.586 121.121L207.749 121.279L196.373 121.937L192.985 122.109L192.063 122.142L191.768 122.161Z" fill="#263238"/>
<path d="M140.377 143.881C140.377 143.881 142.319 159.688 146.46 171.726C150.602 183.765 156.033 194.204 162.134 194.625C168.234 195.047 189.171 190.951 197.972 185.576C206.774 180.202 212.718 176.534 212.718 176.534L225.377 166.925L214.767 153.918C214.767 153.918 186.82 163.389 182.16 163.672C179.363 163.837 176.559 163.64 173.805 163.086C173.805 163.086 174.534 150.507 173.238 145.561C171.942 140.615 167.939 131.283 167.939 131.283L140.377 143.881Z" fill="#C17560"/>
<path d="M215.815 150.573C216.445 148.142 217.23 145.763 218.166 143.453C219.565 140.128 219.914 136.314 220.059 134.233C220.204 132.152 219.86 127.964 221.265 127.035C222.669 126.106 225.906 125.784 226.003 131.072C226.099 136.361 224.568 139.192 225.159 141.642C225.513 143.108 226.103 144.492 226.901 145.732L227.95 144.942L228.915 149.335L215.815 150.573Z" fill="#C17560"/>
<path d="M174.829 141.708L184.788 147.082C184.788 147.082 201.999 152.311 209.371 151.324C216.744 150.336 228.909 149.348 228.909 149.348C228.909 149.348 226.751 139.522 227.613 132.376C231.703 128.921 236.879 127.377 242.009 128.082C250.509 129.254 252.86 133.542 253.023 133.97C254.506 138.185 260.215 169.988 251.16 176.626C242.105 183.265 215.448 177.779 209.112 175.355C203.765 173.307 189.044 166.879 183.793 164.588C182.548 164.042 181.232 163.718 179.893 163.626L173.557 163.198V157.751C173.593 152.99 172.984 148.25 171.749 143.684L170.597 138.376L174.829 141.708Z" fill="#C17560"/>
<path d="M174.828 141.708L174.551 141.511L173.755 140.885L170.602 138.409L170.675 138.356C170.946 139.594 171.278 141.05 171.633 142.703C171.796 143.539 172.049 144.395 172.272 145.337C172.495 146.279 172.7 147.247 172.875 148.287C173.287 150.562 173.545 152.867 173.647 155.183C173.707 156.434 173.707 157.732 173.695 159.075C173.683 160.419 173.695 161.795 173.695 163.224L173.605 163.119L177.933 163.402L180.206 163.56C180.991 163.625 181.768 163.775 182.526 164.008C183.302 164.255 184.063 164.554 184.805 164.904L187.102 165.905L191.876 167.979L202.125 172.352C203.933 173.103 205.742 173.86 207.55 174.604C208.478 174.973 209.407 175.355 210.371 175.658C211.336 175.961 212.313 176.238 213.307 176.495C217.409 177.524 221.559 178.316 225.738 178.866C230.135 179.48 234.568 179.729 239 179.61C241.287 179.536 243.564 179.25 245.806 178.754C246.936 178.484 248.043 178.112 249.116 177.641C250.201 177.163 251.196 176.47 252.051 175.599C252.876 174.693 253.537 173.625 253.999 172.451C254.491 171.272 254.869 170.041 255.126 168.776C255.647 166.205 255.936 163.585 255.988 160.952C256.071 155.857 255.762 150.764 255.066 145.726C254.746 143.243 254.366 140.786 253.896 138.376C253.655 137.17 253.408 135.972 253.094 134.813C253.016 134.523 252.925 134.227 252.835 133.97C252.705 133.714 252.552 133.473 252.377 133.252C252.029 132.793 251.639 132.373 251.213 132.001C249.487 130.549 247.498 129.514 245.378 128.965C243.32 128.353 241.193 128.056 239.06 128.082C236.982 128.139 234.926 128.561 232.972 129.333C231.062 130.062 229.274 131.128 227.679 132.488L227.727 132.389C227.453 135.28 227.469 138.195 227.775 141.082C228.041 143.848 228.453 146.595 229.011 149.308V149.473H228.86C224.038 149.875 219.408 150.296 215.08 150.751L208.804 151.468C206.845 151.596 204.878 151.519 202.932 151.238C199.513 150.78 196.116 150.134 192.757 149.302C189.712 148.571 187.03 147.826 184.715 147.135L177.324 143.111L175.491 142.077C175.063 141.84 174.852 141.708 174.852 141.708C174.852 141.708 175.075 141.814 175.503 142.044L177.42 143.058L184.841 147.01C187.15 147.668 189.839 148.419 192.883 149.137C195.927 149.855 199.309 150.579 203.041 151.034C204.976 151.304 206.929 151.374 208.876 151.244L215.146 150.513C219.474 150.039 224.08 149.611 228.933 149.196L228.812 149.374C228.251 146.65 227.834 143.892 227.564 141.115C227.252 138.205 227.231 135.265 227.504 132.35V132.29L227.546 132.251C229.166 130.867 230.983 129.781 232.923 129.037C234.908 128.247 236.997 127.815 239.109 127.759C241.27 127.729 243.424 128.026 245.511 128.642C247.674 129.206 249.703 130.263 251.467 131.744C251.907 132.138 252.311 132.579 252.672 133.061C252.862 133.303 253.027 133.565 253.167 133.845C253.281 134.148 253.36 134.437 253.444 134.734C253.763 135.913 254.011 137.118 254.252 138.323C254.728 140.747 255.108 143.203 255.457 145.699C256.117 150.754 256.39 155.861 256.271 160.965C256.22 163.624 255.929 166.271 255.403 168.868C255.135 170.154 254.749 171.407 254.252 172.609C253.774 173.82 253.09 174.922 252.238 175.856C250.466 177.693 248.115 178.49 245.866 179.063C243.605 179.566 241.307 179.852 239 179.919C234.552 180.045 230.102 179.792 225.689 179.162C221.498 178.609 217.336 177.811 213.223 176.771C212.228 176.514 211.246 176.238 210.275 175.928C209.304 175.619 208.364 175.237 207.436 174.868C205.579 174.117 203.764 173.353 202.01 172.602L191.762 168.21L186.987 166.122L184.697 165.121C183.962 164.771 183.209 164.47 182.442 164.219C181.697 163.993 180.934 163.843 180.163 163.771L177.897 163.613L173.568 163.316H173.472V163.211C173.472 161.78 173.482 160.394 173.502 159.055C173.502 157.738 173.502 156.421 173.466 155.176C173.371 152.875 173.125 150.583 172.73 148.32C172.55 147.286 172.345 146.305 172.128 145.383C171.911 144.461 171.669 143.592 171.525 142.749L170.59 138.395V138.264L170.687 138.343L173.809 140.859L174.593 141.517L174.828 141.708Z" fill="#7C4236"/>
<path d="M243.696 161.518C243.431 160.493 243.115 159.484 242.75 158.495C241.816 156.137 240.336 154.084 238.455 152.541C236.575 150.997 234.359 150.014 232.025 149.69C231.056 149.578 230.082 149.525 229.107 149.532C229.363 149.456 229.626 149.414 229.891 149.407C230.612 149.35 231.336 149.363 232.055 149.447C234.446 149.713 236.725 150.689 238.646 152.267C240.567 153.846 242.057 155.967 242.955 158.403C243.227 159.132 243.439 159.886 243.588 160.656C243.657 160.937 243.693 161.227 243.696 161.518Z" fill="#7C4236"/>
<path d="M173.798 86.69C172.845 87.3815 155.037 95.5085 153.301 96.4832C153.301 96.4832 134.276 104.386 136.53 126.515C137.784 138.797 139.846 148.828 139.846 148.828C139.846 148.828 147.972 143.467 153.711 140.892C161.102 137.599 170.084 136.123 170.084 136.123L165.02 116.478L173.798 86.69Z" fill="#E0E0E0"/>
<path d="M164.641 117.169C164.725 117.169 166.04 121.582 167.583 127.081C169.126 132.58 170.308 137.072 170.223 137.098C170.139 137.124 168.825 132.692 167.281 127.186C165.738 121.681 164.581 117.196 164.641 117.169Z" fill="#263238"/>
<path d="M162.054 110.893C161.524 110.159 160.956 109.457 160.354 108.792L159.896 108.331L159.366 107.877C158.98 107.541 158.577 107.229 158.16 106.941C157.202 106.279 156.194 105.708 155.146 105.236C153.235 104.342 151.194 103.827 149.118 103.714C148.261 103.71 147.406 103.787 146.562 103.945C146.773 103.835 146.995 103.753 147.225 103.701C147.846 103.549 148.481 103.471 149.118 103.471C151.224 103.517 153.302 104.009 155.236 104.92C156.304 105.4 157.329 105.987 158.299 106.671C158.727 107.014 159.155 107.33 159.504 107.653L160.035 108.133L160.487 108.621C160.749 108.894 160.99 109.189 161.21 109.503C161.391 109.728 161.552 109.971 161.693 110.228C161.835 110.435 161.956 110.658 162.054 110.893Z" fill="#263238"/>
<path d="M143.964 146.496C143.914 146.383 143.88 146.264 143.861 146.14C143.801 145.864 143.723 145.521 143.626 145.1C143.427 144.191 143.162 142.88 142.849 141.247C142.246 137.994 141.45 133.469 140.775 128.444C140.1 123.419 139.66 118.842 139.437 115.523C139.322 113.863 139.25 112.52 139.22 111.571C139.22 111.137 139.22 110.781 139.189 110.498C139.176 110.373 139.176 110.247 139.189 110.122C139.222 110.245 139.24 110.371 139.244 110.498C139.244 110.774 139.292 111.156 139.328 111.565C139.406 112.533 139.515 113.863 139.642 115.483C139.925 118.776 140.395 123.386 141.07 128.378C141.745 133.37 142.487 137.915 143.06 141.181C143.337 142.782 143.566 144.092 143.735 145.047C143.807 145.475 143.867 145.824 143.91 146.101C143.943 146.23 143.961 146.362 143.964 146.496Z" fill="#263238"/>
<path d="M145.898 145.054C145.854 144.931 145.824 144.803 145.808 144.672C145.753 144.389 145.693 144.013 145.615 143.579C145.452 142.584 145.229 141.214 144.964 139.548C144.433 136.137 143.758 131.421 143.022 126.205C142.287 120.989 141.714 116.247 141.347 112.816C141.166 111.097 141.021 109.701 140.949 108.739L140.864 107.626C140.851 107.497 140.851 107.367 140.864 107.238C140.903 107.361 140.927 107.49 140.937 107.62C140.973 107.91 141.021 108.278 141.075 108.726C141.196 109.727 141.365 111.104 141.57 112.783C141.998 116.208 142.625 120.936 143.336 126.152C144.047 131.368 144.71 136.031 145.187 139.508C145.416 141.188 145.603 142.558 145.741 143.559C145.795 144.007 145.838 144.375 145.874 144.665C145.893 144.794 145.901 144.924 145.898 145.054Z" fill="#263238"/>
<g opacity="0.3">
<path d="M169.957 137.829C173.288 144.806 174.969 152.583 174.846 160.452C180.595 161.053 186.051 163.508 190.52 167.505C187.861 165.529 181.29 163.086 173.574 163.211C173.96 150.118 172.477 146.582 169.957 137.829Z" fill="black"/>
</g>
<path d="M204.271 85.6362C204.404 85.962 204.5 86.3051 204.554 86.657C204.633 86.9995 204.729 87.421 204.831 87.9281L205.103 89.6799C205.584 93.431 205.831 97.2134 205.844 101.001C205.904 105.809 205.742 111.538 205.241 117.933C204.711 124.888 203.801 131.803 202.517 138.639L202.3 139.792L201.697 138.83L199.737 135.814C195.548 129.426 191.491 123.373 188.042 117.683C184.594 111.993 181.646 106.757 179.398 102.2C177.578 98.6224 176.053 94.8757 174.84 91.0037C174.623 90.3451 174.467 89.6865 174.328 89.1662C174.189 88.646 174.081 88.1718 174.008 87.803C173.907 87.4301 173.847 87.0455 173.828 86.657C173.912 86.657 174.268 88.185 175.184 90.872C176.533 94.6542 178.145 98.3179 180.007 101.831C182.31 106.303 185.342 111.473 188.79 117.136C192.238 122.8 196.331 128.8 200.533 135.195L202.492 138.218L201.648 138.409C202.93 131.61 203.864 124.74 204.446 117.828C205 111.486 205.229 105.769 205.253 100.988C205.299 97.2234 205.15 93.4591 204.807 89.7129L204.62 87.9545C204.548 87.4539 204.482 87.0324 204.434 86.6834C204.34 86.343 204.285 85.9913 204.271 85.6362Z" fill="#455A64"/>
<path d="M196.911 143.789C196.76 142.884 196.852 141.951 197.176 141.102C197.592 139.923 198.575 138.619 200.859 138.468C202.248 138.346 203.646 138.435 205.013 138.731C205.354 138.818 205.675 138.979 205.957 139.205C206.239 139.432 206.476 139.719 206.653 140.049L210.047 146.246L209.631 148.439L205.664 149.466L203.156 146.173L200.54 146.661C200.54 146.661 197.622 147.319 196.923 143.789H196.911Z" fill="#F18701"/>
<path d="M198.899 139.008C198.899 139.008 198.948 138.968 199.044 138.922C199.185 138.855 199.333 138.804 199.484 138.771C200.051 138.626 200.645 138.694 201.172 138.962C201.952 139.368 202.588 140.044 202.981 140.885L204.476 143.776L206.284 147.379L206.127 147.306C207.297 146.964 208.273 146.687 208.961 146.503C209.318 146.381 209.686 146.3 210.058 146.259C209.721 146.434 209.37 146.573 209.009 146.674C208.334 146.904 207.363 147.227 206.2 147.596H206.097L206.043 147.491C205.494 146.424 204.837 145.205 204.192 143.914C203.089 141.939 202.42 139.752 201.088 139.146C200.601 138.88 200.052 138.784 199.514 138.87C199.312 138.929 199.107 138.975 198.899 139.008Z" fill="#263238"/>
<path d="M205.765 149.499C205.681 149.499 205.699 149.005 205.807 148.439C205.916 147.873 206.066 147.431 206.151 147.451C206.235 147.471 206.217 147.945 206.115 148.511C206.012 149.078 205.849 149.519 205.765 149.499Z" fill="#263238"/>
<path d="M199.829 146.687C199.829 146.634 200.094 146.621 200.486 146.516C200.99 146.374 201.437 146.054 201.758 145.607C201.919 145.378 202.046 145.122 202.132 144.85L202.228 144.54L202.391 144.79C202.712 145.204 202.971 145.671 203.157 146.173C203.103 146.22 202.693 145.726 202.156 144.981L202.415 144.929C202.333 145.251 202.194 145.553 202.005 145.818C201.645 146.329 201.114 146.665 200.528 146.753C200.088 146.806 199.829 146.727 199.829 146.687Z" fill="#263238"/>
<path d="M201.528 142.795C201.485 142.642 201.455 142.486 201.438 142.327C201.362 141.912 201.178 141.53 200.907 141.227C200.719 141.01 200.474 140.861 200.206 140.799C199.938 140.738 199.659 140.768 199.406 140.885C199.102 141.049 198.846 141.304 198.668 141.619C198.49 141.935 198.397 142.299 198.4 142.67C198.377 143.039 198.448 143.408 198.604 143.737C198.76 144.066 198.996 144.341 199.286 144.533C199.53 144.669 199.806 144.72 200.077 144.68C200.349 144.64 200.602 144.511 200.805 144.31C201.092 144.029 201.301 143.666 201.408 143.262C201.435 143.103 201.475 142.946 201.528 142.795C201.567 142.957 201.567 143.127 201.528 143.289C201.447 143.749 201.236 144.171 200.925 144.494C200.708 144.724 200.437 144.883 200.142 144.955C199.797 145.034 199.438 144.983 199.123 144.81C198.786 144.588 198.509 144.271 198.322 143.892C198.134 143.513 198.043 143.086 198.058 142.656C198.073 142.226 198.193 141.808 198.406 141.445C198.618 141.083 198.916 140.789 199.268 140.595C199.595 140.449 199.959 140.428 200.299 140.536C200.585 140.635 200.843 140.815 201.046 141.056C201.327 141.403 201.498 141.839 201.534 142.301C201.572 142.463 201.57 142.634 201.528 142.795Z" fill="#263238"/>
<path d="M206.2 140.523C206.2 140.523 206.2 140.49 206.279 140.49C206.32 140.495 206.359 140.512 206.393 140.539C206.427 140.565 206.454 140.6 206.472 140.641L206.646 140.951L206.749 141.148C206.782 141.194 206.804 141.248 206.815 141.305C206.825 141.362 206.823 141.421 206.809 141.478C206.788 141.546 206.748 141.606 206.695 141.649C206.642 141.68 206.585 141.702 206.526 141.715L206.255 141.774L205.652 141.899L204.259 142.163C204.203 142.166 204.147 142.155 204.095 142.13C204.044 142.105 203.999 142.066 203.964 142.018C203.923 141.952 203.889 141.881 203.861 141.807L203.717 141.451L203.65 141.274C203.604 141.186 203.591 141.082 203.614 140.984C203.628 140.932 203.652 140.884 203.684 140.843C203.717 140.802 203.756 140.77 203.801 140.747C203.865 140.721 203.932 140.706 204 140.701L205.139 140.562C205.486 140.485 205.843 140.472 206.194 140.523C205.866 140.667 205.521 140.76 205.169 140.799L204.042 141.017C203.903 141.017 203.922 141.017 203.903 141.069C203.928 141.154 203.961 141.235 204 141.313L204.145 141.662C204.167 141.709 204.187 141.757 204.205 141.807H204.235L205.603 141.57L206.206 141.478L206.478 141.438C206.58 141.438 206.568 141.438 206.598 141.385C206.628 141.333 206.52 141.148 206.484 141.03L206.357 140.694C206.321 140.529 206.2 140.549 206.2 140.523Z" fill="#263238"/>
<path d="M209.147 145.759C208.743 146.043 208.286 146.226 207.809 146.292C207.346 146.464 206.856 146.533 206.368 146.496C206.332 146.411 206.929 146.173 207.707 145.969C208.167 145.787 208.659 145.715 209.147 145.759Z" fill="#263238"/>
<path d="M359.537 159.675C359.562 160.161 359.376 160.695 358.902 161.288C358.424 161.884 357.677 162.51 356.645 163.158C354.582 164.454 351.476 165.779 347.41 167.107C339.288 169.76 327.447 172.392 312.748 174.853C283.356 179.775 242.603 184.004 197.458 186.369C152.313 188.735 111.341 188.79 81.5957 186.968C66.7195 186.056 54.6691 184.676 46.3135 182.886C42.1317 181.991 38.9043 180.998 36.7169 179.925C35.6229 179.389 34.8141 178.844 34.2771 178.301C33.7429 177.761 33.5021 177.249 33.4767 176.764C33.4513 176.278 33.6372 175.744 34.112 175.151C34.5893 174.555 35.3368 173.929 36.3687 173.281C38.4319 171.985 41.5379 170.66 45.6031 169.332C53.7259 166.679 65.5661 164.047 80.2655 161.586C109.658 156.664 150.411 152.435 195.556 150.07C240.7 147.704 281.672 147.649 311.418 149.471C326.294 150.383 338.344 151.763 346.7 153.553C350.882 154.448 354.109 155.441 356.297 156.514C357.391 157.051 358.199 157.595 358.737 158.138C359.271 158.678 359.511 159.19 359.537 159.675Z" stroke="#C17560" stroke-opacity="0.4"/>
</svg>
