<svg width="300" height="300" viewBox="0 0 300 300" fill="none" xmlns="http://www.w3.org/2000/svg">
<path d="M273.374 92.6288C273.802 89.4015 269.387 86.6842 266.063 86.4066C264.482 86.2775 262.839 86.5293 261.338 85.9806C258.089 84.8059 256.787 80.4362 253.618 79.042C251.25 78.0028 248.515 78.9258 246.221 80.1328C243.927 81.3398 241.651 82.8502 239.084 83.0244C236.851 83.1729 234.421 82.308 232.468 83.444C231.01 84.2895 230.248 86.0258 228.908 87.065C227.569 88.1042 225.882 88.2913 224.251 88.3559C222.621 88.4204 220.94 88.4656 219.452 89.1692C217.964 89.8727 216.742 91.5122 217.052 93.1774L273.374 92.6288Z" fill="#EBEBEB"/>
<path d="M137.105 62.712C137.54 59.4848 133.118 56.7739 129.801 56.4899C128.22 56.3608 126.57 56.6125 125.076 56.0703C121.821 54.8891 120.525 50.5194 117.356 49.1252C114.981 48.0861 112.253 49.0091 109.958 50.2161C107.664 51.4231 105.388 52.9334 102.815 53.1077C100.583 53.2562 98.1584 52.3912 96.2051 53.5272C94.7479 54.3728 93.9853 56.1091 92.6459 57.1482C91.3065 58.1874 89.6199 58.3746 87.9891 58.4391C86.3583 58.5037 84.6717 58.5489 83.1897 59.2589C81.7077 59.9689 80.4799 61.5954 80.79 63.2607L137.105 62.712Z" fill="#EBEBEB"/>
<path d="M76.4125 164.81C76.8403 161.55 72.4254 158.865 69.1017 158.588C67.5205 158.459 65.8711 158.71 64.3768 158.162C61.1275 156.987 59.8254 152.617 56.6568 151.223C54.2819 150.184 51.5535 151.107 49.2593 152.314C46.965 153.521 44.6645 154.999 42.1221 155.167C39.8837 155.322 37.4592 154.457 35.5059 155.593C34.0487 156.438 33.286 158.175 31.9467 159.214C30.6073 160.253 28.9207 160.44 27.2899 160.505C25.6591 160.569 23.9725 160.614 22.4905 161.318C21.0085 162.021 19.7807 163.661 20.0908 165.326L76.4125 164.81Z" fill="#EBEBEB"/>
<path d="M189.242 120.725C189.508 118.731 186.805 117.091 184.777 116.924C183.81 116.84 182.805 116.995 181.888 116.665C179.903 115.943 179.11 113.27 177.169 112.418C175.724 111.773 174.068 112.354 172.648 113.064C171.228 113.774 169.858 114.723 168.308 114.826C166.944 114.916 165.462 114.393 164.265 115.084C163.378 115.6 162.913 116.672 162.088 117.298C161.237 117.848 160.25 118.128 159.249 118.105C158.249 118.076 157.254 118.245 156.316 118.602C155.85 118.79 155.455 119.129 155.19 119.57C154.925 120.011 154.804 120.53 154.846 121.048L189.242 120.725Z" fill="#EBEBEB"/>
<path d="M300 299.832C300 299.922 233.18 300 150.76 300C68.3389 300 1.50684 299.922 1.50684 299.832C1.50684 299.742 68.3203 299.664 150.76 299.664C233.199 299.664 300 299.742 300 299.832Z" fill="#263238"/>
<path d="M193.52 251.268L240.398 299.677L249.55 299.651L252.806 251.268H193.52Z" fill="#E0E0E0"/>
<path d="M231.636 255.851L184.399 299.677L217.393 299.626L245.204 275.279L231.636 255.851Z" fill="#E0E0E0"/>
<path d="M227.197 130.607L285.422 186.794L286.445 128.516L227.197 130.607Z" fill="#E0E0E0"/>
<path d="M266.423 133.034L108.941 299.651H139.97L280.616 151.972L266.423 133.034Z" fill="#E0E0E0"/>
<path d="M62.0698 194.733L118.435 252.94L121.355 194.733H62.0698Z" fill="#E0E0E0"/>
<path d="M101.197 198.541L0 299.651H32.6099L114.764 217.969L101.197 198.541Z" fill="#E0E0E0"/>
<path d="M111.211 174.75L191.672 257.845V174.75H111.211Z" fill="#F18701"/>
<path d="M164.302 176.622C162.479 178.138 46.6484 299.651 46.6484 299.651H96.5523L187.611 204.305L164.302 176.622Z" fill="#F18701"/>
<path d="M56.9799 41.1792C61.0445 39.4423 62.9868 34.6044 61.3181 30.3735C59.6494 26.1426 55.0017 24.1209 50.9372 25.8578C46.8726 27.5947 44.9304 32.4326 46.599 36.6635C48.2677 40.8944 52.9154 42.9162 56.9799 41.1792Z" fill="#F18701"/>
<path d="M52.8244 52.0428C52.7326 50.9073 52.6995 49.7675 52.7252 48.6283C52.6954 47.4894 52.7244 46.3496 52.812 45.2139C52.8554 45.2139 52.8926 46.7436 52.8926 48.6283C52.8926 50.513 52.8678 52.0428 52.8244 52.0428Z" fill="#F18701"/>
<path d="M48.2357 43.2839C48.2791 43.2839 47.5288 44.7362 46.5677 46.4725C45.6066 48.2087 44.7881 49.5965 44.7508 49.5706C44.7136 49.5448 45.4577 48.1248 46.4189 46.3821C47.38 44.6394 48.1985 43.2581 48.2357 43.2839Z" fill="#F18701"/>
<path d="M43.529 40.2374C42.9453 40.8291 42.3238 41.379 41.6688 41.8833C41.0473 42.4327 40.3906 42.9373 39.7031 43.3937C40.2879 42.8032 40.9093 42.2534 41.5634 41.7478C42.1854 41.1992 42.8421 40.6946 43.529 40.2374Z" fill="#F18701"/>
<path d="M60.7863 48.6799C60.6945 48.4066 60.624 48.126 60.5755 47.8408C60.4639 47.318 60.3027 46.5951 60.098 45.8076C59.8934 45.0202 59.6888 44.3166 59.5338 43.8067C59.4389 43.5334 59.3643 43.2529 59.3105 42.9677C59.4527 43.2194 59.5651 43.4882 59.6454 43.768C59.8844 44.4215 60.0913 45.0871 60.2655 45.7625C60.4701 46.5564 60.6127 47.2857 60.6995 47.815C60.763 48.0984 60.7921 48.389 60.7863 48.6799Z" fill="#F18701"/>
<path d="M68.8467 42.7159C68.027 42.0874 67.2424 41.4107 66.4966 40.6892C65.7113 40.0159 64.962 39.2984 64.252 38.5399C65.0725 39.1649 65.8572 39.8395 66.602 40.5601C67.3866 41.2366 68.1359 41.9562 68.8467 42.7159Z" fill="#F18701"/>
<path d="M71.9473 34.5251C71.6263 34.4998 71.3073 34.4523 70.9924 34.3831C70.3723 34.2798 69.5848 34.1443 68.6795 34.041C67.7742 33.9377 66.9557 33.8667 66.3542 33.828C66.032 33.8251 65.7106 33.7949 65.3931 33.7376C65.7137 33.6936 66.0377 33.6828 66.3604 33.7054C67.1417 33.7178 67.922 33.7716 68.6981 33.8667C69.4749 33.9577 70.2468 34.0891 71.011 34.2605C71.332 34.3098 71.6463 34.3987 71.9473 34.5251Z" fill="#F18701"/>
<path d="M71.9477 26.4699C71.9477 26.5151 70.2363 26.9927 68.1032 27.5349C65.9702 28.0771 64.2215 28.4772 64.2153 28.4256C64.2091 28.374 65.9268 27.9028 68.0598 27.3606C70.1929 26.8184 71.9477 26.4182 71.9477 26.4699Z" fill="#F18701"/>
<path d="M62.9438 17.0786C62.981 17.0786 62.1563 18.4727 61.0835 20.138C60.0108 21.8033 59.1427 23.1265 59.1055 23.1006C59.6721 22.0467 60.2931 21.0254 60.9657 20.0412C62.026 18.3824 62.9065 17.0527 62.9438 17.0786Z" fill="#F18701"/>
<path d="M54.021 15.1163C54.0454 15.4967 54.0454 15.8784 54.021 16.2588C54.021 16.9559 54.021 17.9241 54.021 18.9955C54.021 20.067 54.021 21.0351 54.052 21.7387C54.0765 22.1169 54.0765 22.4964 54.052 22.8747C53.9831 22.5001 53.9458 22.12 53.9404 21.7387C53.9032 21.0416 53.866 20.067 53.866 18.9955C53.866 17.9241 53.866 16.9559 53.9342 16.2523C53.9314 15.8718 53.9604 15.4917 54.021 15.1163Z" fill="#F18701"/>
<path d="M47.2624 23.8816C46.5937 22.9081 45.9728 21.8999 45.4022 20.8609C44.4039 19.1633 43.635 17.7692 43.6722 17.7433C43.7094 17.7175 44.5527 19.073 45.5324 20.7705C46.5122 22.4681 47.2997 23.8558 47.2624 23.8816Z" fill="#F18701"/>
<path d="M43.2254 27.4509C42.9387 27.4432 42.6538 27.4021 42.3759 27.3283C41.8613 27.2121 41.1358 27.0314 40.3793 26.7926C39.6228 26.5538 38.9097 26.3085 38.4198 26.1084C38.1442 26.0215 37.8798 25.9001 37.6323 25.7469C37.9134 25.8044 38.1893 25.8864 38.457 25.9922C38.9593 26.16 39.6538 26.3924 40.4227 26.6377C41.1916 26.8829 41.8985 27.0766 42.4069 27.2186C42.6861 27.2693 42.9602 27.3471 43.2254 27.4509Z" fill="#F18701"/>
<path d="M41.458 33.8151C40.621 33.9886 39.7737 34.1029 38.9219 34.1572C38.075 34.274 37.2214 34.33 36.3672 34.325C37.2048 34.1554 38.0518 34.0411 38.9033 33.983C39.7505 33.8701 40.6039 33.8141 41.458 33.8151Z" fill="#F18701"/>
<path d="M148.893 158.155L148.447 168.767C148.447 168.767 158.659 172.807 158.765 174.776L138.959 174.614L139.003 158.046L148.893 158.155Z" fill="#455A64"/>
<path d="M142.332 167.824C142.141 167.883 141.978 168.013 141.872 168.189C141.767 168.365 141.728 168.575 141.762 168.779C141.811 168.981 141.932 169.154 142.1 169.265C142.269 169.376 142.472 169.414 142.667 169.373C142.874 169.317 143.053 169.181 143.168 168.993C143.283 168.805 143.326 168.579 143.287 168.36C143.216 168.156 143.071 167.989 142.884 167.894C142.696 167.799 142.481 167.783 142.283 167.85" fill="#E0E0E0"/>
<g opacity="0.6">
<path d="M138.959 174.614L139.028 172.943L157.99 173.723C157.99 173.723 158.87 174.13 158.765 174.776L138.959 174.614Z" fill="white"/>
</g>
<path d="M148.769 168.683C148.769 168.786 148.279 168.831 147.802 169.147C147.324 169.464 147.07 169.89 146.977 169.851C146.884 169.812 147.039 169.205 147.597 168.85C148.155 168.495 148.788 168.573 148.769 168.683Z" fill="#263238"/>
<path d="M150.84 169.58C150.84 169.677 150.443 169.844 150.108 170.264C149.773 170.683 149.68 171.135 149.581 171.135C149.482 171.135 149.426 170.561 149.848 170.038C150.27 169.515 150.84 169.483 150.84 169.58Z" fill="#263238"/>
<path d="M152 172.174C151.913 172.174 151.783 171.69 152.031 171.142C152.279 170.593 152.738 170.38 152.781 170.464C152.825 170.548 152.539 170.838 152.335 171.29C152.13 171.742 152.093 172.168 152 172.174Z" fill="#263238"/>
<path d="M148.614 166.236C148.571 166.327 148.131 166.185 147.579 166.236C147.027 166.288 146.605 166.449 146.556 166.359C146.506 166.269 146.922 165.92 147.566 165.888C148.211 165.855 148.658 166.159 148.614 166.236Z" fill="#263238"/>
<path d="M179.661 158.155L179.221 168.767C179.221 168.767 189.44 172.807 189.539 174.776L169.734 174.614L169.777 158.046L179.661 158.155Z" fill="#455A64"/>
<path d="M173.101 167.824C172.91 167.884 172.747 168.014 172.642 168.19C172.537 168.366 172.498 168.575 172.53 168.779C172.579 168.981 172.7 169.154 172.869 169.265C173.037 169.376 173.24 169.414 173.435 169.373C173.643 169.318 173.823 169.182 173.938 168.994C174.053 168.806 174.095 168.579 174.056 168.36C173.985 168.155 173.841 167.987 173.653 167.892C173.465 167.797 173.249 167.782 173.051 167.85" fill="#E0E0E0"/>
<g opacity="0.6">
<path d="M169.728 174.614L169.796 172.943L188.758 173.723C188.758 173.723 189.639 174.13 189.533 174.776L169.728 174.614Z" fill="white"/>
</g>
<path d="M179.537 168.683C179.537 168.786 179.047 168.831 178.57 169.147C178.093 169.464 177.838 169.89 177.751 169.851C177.665 169.812 177.807 169.205 178.372 168.85C178.936 168.495 179.562 168.573 179.537 168.683Z" fill="#263238"/>
<path d="M181.608 169.58C181.608 169.677 181.212 169.844 180.877 170.264C180.542 170.683 180.449 171.135 180.35 171.135C180.251 171.135 180.201 170.561 180.623 170.038C181.044 169.515 181.608 169.483 181.608 169.58Z" fill="#263238"/>
<path d="M182.768 172.174C182.681 172.174 182.551 171.69 182.805 171.142C183.059 170.593 183.506 170.38 183.549 170.464C183.593 170.548 183.307 170.838 183.109 171.29C182.91 171.742 182.867 172.168 182.768 172.174Z" fill="#263238"/>
<path d="M179.382 166.236C179.339 166.327 178.899 166.185 178.353 166.236C177.807 166.288 177.379 166.449 177.33 166.359C177.28 166.269 177.689 165.92 178.334 165.888C178.979 165.855 179.432 166.159 179.382 166.236Z" fill="#263238"/>
<path d="M139.052 18.7696C138.306 16.8027 137.723 14.7729 137.31 12.7024C136.897 10.6226 136.989 8.46872 137.576 6.43502C137.669 6.13166 138.513 4.08557 138.816 4.10493C139.033 4.10493 138.537 6.04129 138.655 6.21557C139.72 8.10911 140.209 10.2944 140.057 12.4829C139.949 14.6046 139.612 16.707 139.052 18.7503" fill="#263238"/>
<path d="M139.704 30.0199L138.966 10.8435C138.618 5.55724 140.888 0.813158 145.979 0.600159H146.531C148.796 0.64236 150.962 1.56996 152.601 3.19866C154.239 4.82736 155.228 7.03796 155.373 9.39123C155.652 13.9998 155.906 19.1118 155.832 21.5838C155.689 26.6636 150.791 27.3929 150.791 27.3929C150.791 27.3929 151.001 31.0784 151.039 32.5565C151.039 32.5565 150.518 32.9503 145.966 33.1181C141.415 33.2859 139.704 30.0199 139.704 30.0199Z" fill="#FFBF9D"/>
<path d="M150.791 27.3735C148.546 27.3213 146.362 26.6024 144.497 25.3016C144.497 25.3016 145.985 29.0259 150.865 28.658L150.791 27.3735Z" fill="#FF9A6C"/>
<path d="M153.693 14.0126C153.693 14.2021 153.621 14.3841 153.494 14.5193C153.366 14.6545 153.192 14.7321 153.01 14.7355C152.834 14.7462 152.661 14.6847 152.528 14.5641C152.394 14.4434 152.312 14.2733 152.297 14.0901C152.301 13.9011 152.374 13.7208 152.502 13.5871C152.631 13.4535 152.804 13.3769 152.986 13.3736C153.161 13.3612 153.333 13.4214 153.466 13.5412C153.598 13.6609 153.68 13.8304 153.693 14.0126Z" fill="#263238"/>
<path d="M154.139 12.1989C154.052 12.2958 153.519 11.8762 152.775 11.8633C152.031 11.8504 151.473 12.2312 151.392 12.1344C151.311 12.0376 151.442 11.9279 151.683 11.7471C152.013 11.5181 152.403 11.4009 152.8 11.4115C153.189 11.4197 153.567 11.5552 153.879 11.7988C154.108 11.9859 154.182 12.1602 154.139 12.1989Z" fill="#263238"/>
<path d="M147.275 14.1353C147.188 14.2256 146.655 13.8125 145.917 13.7996C145.179 13.7867 144.608 14.1675 144.528 14.0707C144.447 13.9739 144.577 13.8577 144.825 13.6834C145.152 13.4517 145.54 13.3342 145.935 13.3478C146.327 13.3497 146.708 13.4832 147.02 13.7286C147.244 13.9223 147.318 14.0901 147.275 14.1353Z" fill="#263238"/>
<path d="M149.562 18.3565C149.965 18.2306 150.382 18.1612 150.803 18.15C150.995 18.15 151.175 18.0984 151.212 17.9628C151.232 17.757 151.191 17.5496 151.094 17.369L150.555 15.8393C150.042 14.5409 149.627 13.2029 149.314 11.8375C149.918 13.0841 150.424 14.3791 150.827 15.7102L151.348 17.2464C151.464 17.4883 151.493 17.7654 151.429 18.0274C151.401 18.098 151.359 18.161 151.304 18.2115C151.249 18.2619 151.183 18.2983 151.113 18.3178C151.005 18.342 150.895 18.355 150.784 18.3565C150.379 18.4122 149.968 18.4122 149.562 18.3565Z" fill="#263238"/>
<path d="M147.312 12.0504C147.219 12.257 146.481 12.0892 145.594 12.115C144.708 12.1408 143.976 12.328 143.877 12.115C143.833 12.0246 143.976 11.8374 144.28 11.6567C144.683 11.4406 145.129 11.3237 145.582 11.3147C146.036 11.3058 146.486 11.4051 146.897 11.6051C147.207 11.7729 147.355 11.9536 147.312 12.0504Z" fill="#263238"/>
<path d="M154.418 9.2556C154.307 9.46215 153.68 9.41696 152.973 9.56542C152.266 9.71387 151.69 9.97851 151.516 9.83005C151.436 9.7526 151.516 9.55897 151.721 9.33951C152.036 9.05019 152.423 8.85798 152.837 8.78442C153.251 8.6965 153.679 8.72774 154.077 8.87478C154.362 9.01678 154.48 9.17815 154.418 9.2556Z" fill="#263238"/>
<path d="M139.3 14.5806C139.214 14.5419 135.958 13.4898 136.008 16.9623C136.057 20.4349 139.4 19.6732 139.406 19.5764C139.412 19.4796 139.3 14.5806 139.3 14.5806Z" fill="#FFBF9D"/>
<path d="M138.296 18.292C138.296 18.292 138.234 18.3372 138.135 18.3824C138.066 18.4126 137.992 18.4281 137.918 18.4281C137.843 18.4281 137.769 18.4126 137.701 18.3824C137.484 18.2423 137.306 18.0448 137.187 17.8101C137.067 17.5754 137.009 17.3119 137.019 17.0463C137.005 16.7479 137.056 16.4502 137.167 16.1749C137.199 16.0662 137.254 15.9668 137.33 15.8849C137.405 15.803 137.498 15.7409 137.602 15.7037C137.668 15.6846 137.738 15.6903 137.8 15.7198C137.863 15.7493 137.913 15.8008 137.943 15.8651C137.992 15.9619 137.943 16.0329 137.992 16.0394C138.042 16.0458 138.06 15.9813 138.029 15.8328C138.01 15.7489 137.964 15.674 137.899 15.6198C137.806 15.5491 137.691 15.519 137.577 15.5359C137.436 15.5613 137.304 15.6255 137.195 15.722C137.086 15.8185 137.003 15.9437 136.957 16.0846C136.817 16.3882 136.751 16.7228 136.764 17.0592C136.752 17.369 136.829 17.6757 136.984 17.9401C137.14 18.2044 137.368 18.4146 137.639 18.5437C137.728 18.5696 137.822 18.5743 137.913 18.5576C138.004 18.5408 138.09 18.503 138.166 18.4469C138.296 18.3695 138.296 18.292 138.296 18.292Z" fill="#FF9A6C"/>
<path d="M153.085 3.77575C153.618 3.44657 151.957 1.66512 150.605 1.0713C148.577 0.174122 145.495 -0.335787 143.66 0.251576C141.446 0.968028 139.617 2.18794 138.544 4.30502C137.519 6.48195 137.065 8.90262 137.23 11.3211C137.218 12.0618 137.396 12.7924 137.744 13.4382C138.228 14.1934 139.133 14.6581 139.121 15.7166C139.113 15.9089 139.142 16.1008 139.206 16.2814C139.27 16.4619 139.367 16.6276 139.493 16.7687C140.113 17.4142 140.851 16.7687 141.18 16.1233C141.886 14.7485 141.93 13.1155 141.961 11.5535C142.038 10.4452 141.942 9.33131 141.676 8.25519C141.496 7.68074 141.223 7.13856 141.056 6.5512C140.964 6.26369 140.933 5.95873 140.966 5.65769C141 5.35665 141.096 5.06681 141.248 4.80847C141.328 4.7033 141.417 4.60607 141.514 4.51802C141.971 4.08418 142.531 3.78445 143.135 3.64949C143.74 3.51454 144.368 3.5492 144.956 3.74993C146.853 4.39538 150.09 5.35065 150.915 4.66647C151.505 4.24173 152.001 3.69178 152.372 3.05284L153.085 3.77575Z" fill="#263238"/>
<path d="M150.077 20.4672C150.077 20.5252 149.91 20.6414 149.575 20.6802C149.134 20.7257 148.69 20.6431 148.292 20.4413C147.882 20.2606 147.529 19.963 147.275 19.5829C147.095 19.286 147.064 19.0665 147.114 19.0407C147.163 19.0149 147.628 19.6862 148.447 20.0605C149.265 20.4349 150.022 20.3381 150.077 20.4672Z" fill="#263238"/>
<path d="M196.583 12.0052C196.583 12.0052 196.453 11.192 196.069 11.192C195.809 11.1906 195.554 11.2664 195.335 11.4105C195.115 11.5546 194.939 11.7609 194.828 12.0052C194.562 12.5991 196.583 12.0052 196.583 12.0052Z" fill="#FFBF9D"/>
<path d="M186.724 24.9466L187.109 18.5372L188.349 11.9343C188.349 11.9343 189.316 10.8628 189.831 11.1081C190.346 11.3533 190.153 12.2441 190.153 12.2441C190.153 12.2441 191.505 10.7208 192.014 11.0693C192.522 11.4179 192.336 12.2441 192.336 12.2441C192.336 12.2441 193.576 10.553 194.14 11.0177C194.705 11.4824 194.14 12.2441 194.14 12.2441C194.14 12.2441 194.903 19.6345 194.519 22.2809C194.402 23.0523 194.11 23.7836 193.667 24.4135C193.223 25.0435 192.642 25.5538 191.97 25.9019L190.947 30.0586L185.906 27.2057L186.724 24.9466Z" fill="#FFBF9D"/>
<path d="M189.806 16.5557L162.436 16.2395V13.961L189.806 13.1606V16.5557Z" fill="#F18701"/>
<path d="M218.708 18.8148L180.033 17.1173C179.551 15.6773 179.551 14.11 180.033 12.6701L218.478 10.9016C220.208 12.8185 220.227 16.8462 218.708 18.8148Z" fill="#F18701"/>
<path d="M218.335 11.2695C218.335 11.2695 217.17 12.4055 217.213 14.8776C217.257 17.3496 218.453 18.3888 218.453 18.3888C219.293 17.298 219.683 15.9056 219.538 14.5161C219.334 12.0957 218.335 11.2695 218.335 11.2695Z" fill="#E0E0E0"/>
<path d="M216.786 18.8148C216.47 18.5513 216.213 18.2185 216.035 17.8402C215.531 16.9556 215.267 15.9449 215.273 14.9163C215.272 13.8955 215.503 12.889 215.948 11.9794C216.115 11.5897 216.375 11.2516 216.705 10.9984C216.748 10.9984 216.451 11.3985 216.153 12.0827C215.789 12.9819 215.6 13.947 215.595 14.9227C215.589 15.8961 215.801 16.8576 216.215 17.7304C216.425 18.0801 216.616 18.4422 216.786 18.8148Z" fill="#263238"/>
<path d="M218.509 10.9919C218.552 11.0307 218.267 11.405 217.957 12.0892C217.552 12.9766 217.35 13.95 217.368 14.9325C217.387 15.915 217.624 16.8795 218.063 17.7498C218.229 18.1166 218.462 18.4456 218.751 18.718C218.751 18.718 218.621 18.718 218.441 18.5825C218.205 18.3861 218.009 18.1425 217.864 17.866C217.344 16.9836 217.061 15.9726 217.042 14.9377C217.023 13.9028 217.271 12.8815 217.759 11.9795C217.93 11.5931 218.187 11.2546 218.509 10.9919Z" fill="#263238"/>
<path d="M219.012 13.0574C218.968 12.9274 218.898 12.8086 218.807 12.7088C218.762 12.6577 218.706 12.619 218.643 12.5965C218.58 12.5739 218.513 12.5682 218.447 12.5797C218.382 12.596 218.322 12.6305 218.274 12.6793C218.226 12.7282 218.192 12.7897 218.174 12.8573C218.143 12.9918 218.158 13.1337 218.218 13.2574C218.36 13.5479 218.59 13.819 218.577 14.1094C218.565 14.3999 218.503 14.6903 218.522 14.9808C218.527 15.0866 218.559 15.189 218.615 15.2777C218.642 15.3231 218.681 15.3597 218.727 15.3836C218.773 15.4076 218.824 15.4178 218.875 15.4133C219.043 15.4133 219.123 15.1938 219.16 15.026C219.307 14.3695 219.255 13.6819 219.012 13.0574Z" fill="white"/>
<path d="M180.027 17.2593C179.621 16.5667 179.436 15.7575 179.5 14.9486C179.467 14.1356 179.685 13.3328 180.12 12.6572C180.213 12.696 179.854 13.6835 179.841 14.955C179.829 16.2266 180.12 17.227 180.027 17.2593Z" fill="#263238"/>
<path d="M162.38 16.7816C162.27 16.7816 162.164 16.7361 162.086 16.655C162.008 16.5739 161.964 16.4639 161.964 16.3492V13.9352C161.964 13.8205 162.008 13.7105 162.086 13.6294C162.164 13.5483 162.27 13.5027 162.38 13.5027C162.491 13.5027 162.597 13.5481 162.676 13.629C162.755 13.7099 162.8 13.8199 162.801 13.9352V16.3556C162.798 16.4698 162.752 16.5782 162.674 16.6577C162.595 16.7372 162.49 16.7817 162.38 16.7816Z" fill="#F18701"/>
<path d="M162.38 16.7817C162.38 16.7817 162.491 16.7817 162.603 16.6332C162.669 16.565 162.707 16.4722 162.708 16.375C162.708 16.2266 162.708 16.0781 162.708 15.9232C162.708 15.536 162.708 15.1358 162.677 14.7227C162.677 14.4903 162.677 14.258 162.677 14.0127C162.687 13.9718 162.687 13.9292 162.678 13.8882C162.67 13.8471 162.652 13.8087 162.627 13.7758C162.602 13.7428 162.57 13.7162 162.533 13.698C162.497 13.6798 162.457 13.6704 162.417 13.6706C162.377 13.6716 162.338 13.6818 162.302 13.7003C162.266 13.7189 162.234 13.7455 162.21 13.7781C162.185 13.8108 162.167 13.8487 162.158 13.8892C162.149 13.9298 162.148 13.9719 162.156 14.0127C162.156 14.258 162.156 14.4903 162.156 14.7227C162.156 15.153 162.144 15.5532 162.119 15.9232V16.375C162.119 16.4228 162.127 16.4702 162.144 16.5145C162.161 16.5588 162.186 16.5991 162.218 16.6332C162.33 16.7494 162.448 16.7559 162.442 16.7817C162.435 16.8075 162.324 16.8527 162.138 16.7365C162.083 16.6975 162.037 16.6468 162.003 16.5878C161.969 16.5288 161.947 16.4628 161.939 16.3944C161.939 16.2395 161.939 16.0846 161.939 15.9232C161.939 15.536 161.939 15.1358 161.908 14.7227C161.908 14.4903 161.908 14.258 161.908 14.0127C161.894 13.8482 161.94 13.6842 162.039 13.5544C162.093 13.4861 162.161 13.431 162.238 13.3931C162.316 13.3551 162.4 13.3353 162.485 13.335C162.571 13.3369 162.656 13.3574 162.734 13.3952C162.811 13.4329 162.881 13.4872 162.938 13.5544C163.034 13.6851 163.078 13.8491 163.062 14.0127C163.062 14.258 163.062 14.4903 163.062 14.7227C163.062 15.153 163.049 15.5532 163.025 15.9232C163.025 16.0846 163.025 16.2395 163.025 16.3944C163.015 16.4629 162.991 16.5286 162.956 16.5874C162.921 16.6462 162.875 16.6969 162.82 16.7365C162.479 16.8527 162.373 16.7946 162.38 16.7817Z" fill="#263238"/>
<path d="M167.136 21.558C167.136 21.558 166.553 14.0772 166.727 13.4188C166.9 12.7605 168.878 10.4498 169.573 10.3723C170.267 10.2948 170.342 11.0952 170.342 11.0952C170.919 10.6952 171.581 10.4451 172.27 10.3658C172.534 10.3387 172.798 10.416 173.009 10.5823C173.221 10.7485 173.364 10.9916 173.411 11.263C173.871 10.9765 174.42 10.8863 174.943 11.0113C175.352 11.0888 175.823 11.8375 175.823 11.8375C175.823 11.8375 176.834 11.3857 177.318 11.8375C177.713 12.2901 177.933 12.8784 177.938 13.4898C177.293 13.4855 176.664 13.6933 176.14 14.0837C176.023 15.7137 175.809 17.3347 175.501 18.9375C175.116 20.5382 173.591 21.8678 173.076 22.694L172.673 28.2255L166.138 24.6368L167.136 21.558Z" fill="#FFBF9D"/>
<path d="M168.605 13.9804C168.563 13.6363 168.589 13.2869 168.682 12.9538C168.774 12.6207 168.932 12.311 169.145 12.044C169.312 11.7423 169.538 11.4803 169.808 11.2747C170.078 11.0691 170.387 10.9244 170.713 10.8499C170.242 11.2731 169.807 11.7374 169.411 12.2376C169.1 12.796 168.83 13.3787 168.605 13.9804Z" fill="#FF9A6C"/>
<path d="M171.78 13.8512C171.687 13.554 171.664 13.2381 171.711 12.9296C171.759 12.621 171.876 12.3286 172.053 12.0763C172.275 11.6879 172.616 11.388 173.02 11.2243C173.33 11.1145 173.535 11.1403 173.541 11.1791C173.547 11.2178 172.785 11.4373 172.332 12.257C172.096 12.7673 171.911 13.3015 171.78 13.8512Z" fill="#FF9A6C"/>
<path d="M174.149 13.606C174.062 13.606 174.205 12.8767 174.819 12.3151C175.433 11.7536 176.115 11.6697 176.121 11.7471C176.127 11.8246 175.569 12.0505 175.036 12.5668C174.503 13.0832 174.261 13.6383 174.149 13.606Z" fill="#FF9A6C"/>
<path d="M190.879 23.3975C191.97 22.0614 191.139 18.4663 191.139 18.4663C191.597 18.2964 192.01 18.0169 192.345 17.6503C192.68 17.2837 192.927 16.8402 193.067 16.3556C193.452 14.7484 192.683 14.4774 192.683 14.4774C192.423 14.6129 190.041 16.2201 188.82 16.8914C187.598 17.5626 187.214 24.3786 187.214 24.3786" fill="#FFBF9D"/>
<path d="M187.214 24.3528C187.182 24.0547 187.182 23.7538 187.214 23.4557C187.245 22.8812 187.301 22.055 187.419 21.0288C187.532 19.8188 187.79 18.6284 188.187 17.4852C188.259 17.3173 188.346 17.1573 188.448 17.0076C188.564 16.8498 188.715 16.7236 188.888 16.6397C189.186 16.4719 189.508 16.2911 189.787 16.1039L191.647 14.9099C191.97 14.7033 192.268 14.5032 192.602 14.3031L192.664 14.2644L192.726 14.2967C192.852 14.3598 192.962 14.45 193.051 14.5614C193.14 14.6727 193.205 14.8025 193.241 14.9421C193.313 15.1797 193.341 15.4296 193.322 15.6779C193.297 16.3382 193.077 16.9744 192.694 17.5008C192.31 18.0271 191.78 18.4182 191.176 18.6212L191.263 18.4534C191.542 19.6664 191.6 20.9228 191.437 22.1583C191.379 22.5026 191.265 22.8342 191.102 23.1394C191.039 23.2433 190.962 23.3369 190.872 23.4169C190.911 23.3031 190.963 23.1947 191.027 23.0942C191.16 22.7889 191.247 22.4647 191.288 22.1325C191.389 20.9216 191.292 19.7018 191.003 18.5244L190.972 18.4018L191.089 18.3566C191.782 18.0793 192.356 17.5526 192.708 16.872C192.886 16.4955 192.988 16.0845 193.005 15.665C193.04 15.4727 193.022 15.2742 192.954 15.0918C192.886 14.9093 192.771 14.7502 192.621 14.6323H192.745C192.454 14.8066 192.125 15.026 191.821 15.2261C191.201 15.6392 190.581 16.0394 189.961 16.4202C189.657 16.6074 189.341 16.7881 189.049 16.9559C188.913 17.0158 188.793 17.1114 188.702 17.2335C188.608 17.3595 188.53 17.4985 188.473 17.6466C188.071 18.7577 187.798 19.9148 187.66 21.0933C187.512 22.1067 187.419 22.9328 187.35 23.5008C187.33 23.7886 187.284 24.0738 187.214 24.3528Z" fill="#FF9A6C"/>
<path d="M139.722 83.2181C139.722 83.2181 140.485 115.704 139.722 119.667C138.959 123.63 137.676 140.005 137.676 152.153C137.676 164.3 138.166 167.069 138.166 167.069H149.494C149.494 167.069 150.301 143.975 153.798 130.601C157.047 118.189 160.786 99.3157 160.786 91.1314V80.049H140.739L139.722 83.2181Z" fill="#263238"/>
<path d="M167.13 80.049C167.13 80.049 179.016 114.387 179.779 124.424C180.542 134.461 180.573 167.069 180.573 167.069H168.841L167.278 127.696L158.25 102.175V80.049H167.13Z" fill="#263238"/>
<path d="M160.786 98.5412C160.763 98.855 160.713 99.166 160.637 99.4707C160.519 100.116 160.358 100.981 160.166 102.001C159.763 104.202 159.223 107.126 158.634 110.353C158.045 113.58 157.456 116.569 157.003 118.692C156.774 119.757 156.576 120.629 156.427 121.203C156.366 121.515 156.277 121.819 156.16 122.113C156.183 121.797 156.232 121.484 156.309 121.177C156.427 120.532 156.588 119.667 156.774 118.647C157.183 116.446 157.717 113.522 158.312 110.288C158.907 107.055 159.49 104.079 159.943 101.956C160.172 100.891 160.37 100.019 160.519 99.4448C160.578 99.1347 160.667 98.8319 160.786 98.5412Z" fill="#455A64"/>
<path d="M171.631 95.2106H174.142C174.142 95.2106 174.719 86.1743 173.268 80.0489C171.817 73.9236 164.401 47.3374 164.401 47.3374L156.191 33.2407L151.789 31.201L166.249 81.669L171.631 95.2106Z" fill="#455A64"/>
<path opacity="0.3" d="M162.479 51.365C162.479 51.365 170.081 74.8143 171.34 80.959C172.214 85.6717 172.852 90.4287 173.249 95.2106H171.625L165.653 78.8419C165.653 78.8419 159.453 52.8173 159.719 52.8818C159.986 52.9463 162.479 51.365 162.479 51.365Z" fill="black"/>
<path d="M137.986 30.633L138.668 26.1149L150.797 31.7819V29.0517L156.154 38.3591L167.936 73.2136C168.314 74.2915 168.773 77.8673 168.084 78.7645L167.123 80.0554L154.35 81.7787L142.24 36.242L137.986 30.633Z" fill="#E0E0E0"/>
<path opacity="0.3" d="M139.995 98.5412C139.995 98.5412 156.217 100.432 159.54 99.0575C160.498 98.6506 161.33 97.9771 161.945 97.1107C162.56 96.2442 162.933 95.2184 163.025 94.1456C163.025 94.1456 164.65 82.1596 164.538 79.5132C164.351 77.0658 163.998 74.635 163.484 72.239L139.964 96.4241L139.995 98.5412Z" fill="black"/>
<path d="M152.21 35.8419C152.21 35.8419 157.754 55.4895 157.711 55.6315C157.667 55.7735 163.856 75.7374 163.856 75.7374L165.096 69.7282L156.477 39.7856L153.01 35.3643L152.21 35.8419Z" fill="#F18701"/>
<path d="M134.383 32.492C128.697 36.1 128.406 41.6961 130.936 48.1119C131.351 49.1769 132.176 51.0036 132.722 52.2428C135.165 57.6582 140.243 66.4944 140.243 68.5599C140.243 73.4266 136.058 95.9981 136.058 95.9981C136.058 95.9981 158.74 98.8639 160.786 96.6435C162.833 94.4232 164.408 80.5072 163.75 74.2851C163.025 67.4174 159.627 55.7993 158.25 51.5006C157.419 48.9187 154.685 42.4642 151.429 38.2559C148.99 35.0976 146.088 32.3595 142.829 30.1425L137.998 26.8507L137.006 30.3362C136.202 31.142 135.323 31.864 134.383 32.492Z" fill="#455A64"/>
<path d="M156.458 34.0346C156.929 34.0346 177.658 41.083 176.456 40.5666L177.014 39.9599L184.455 28.2385L191.275 32.4404C191.275 32.4404 184.535 45.8722 183.419 47.9829C182.885 49.0155 182.091 49.8772 181.122 50.4753C180.153 51.0735 179.045 51.3855 177.919 51.378C176.4 51.378 163.415 49.1124 163.415 49.1124L156.458 34.0346Z" fill="#455A64"/>
<path d="M164.798 25.9664L166.404 23.0103L173.622 27.2896L172.499 30.5427L164.798 25.9664Z" fill="#E0E0E0"/>
<path opacity="0.3" d="M133.044 48.312C133.044 48.312 146.977 56.3737 151.411 57.4645C155.844 58.5554 160.786 60.0076 160.786 60.0076L158.796 53.4111L146.686 45.7496L133.044 48.312Z" fill="black"/>
<path d="M133.044 48.312C132.87 48.1765 153.947 55.98 158.244 54.5729C162.541 53.1658 163.93 48.7638 165.468 46.0077C168.277 41.0184 173.256 31.0913 173.256 31.0913L164.339 25.7792L155.46 41.2701C155.46 41.2701 139.741 34.5187 138.296 34.0798C136.851 33.6409 132.38 33.0341 130.198 38.4753C127.755 44.4974 133.044 48.312 133.044 48.312Z" fill="#455A64"/>
<path d="M133.044 48.312C132.986 48.2859 132.932 48.2511 132.883 48.2087C132.784 48.1313 132.635 48.0086 132.449 47.8408C131.905 47.3483 131.418 46.7916 130.998 46.182C130.306 45.2059 129.831 44.0813 129.609 42.8902C129.543 42.528 129.504 42.1612 129.491 41.7929C129.491 41.4121 129.528 41.0184 129.541 40.6053C129.553 40.1922 129.677 39.792 129.801 39.3789C129.925 38.9546 130.075 38.5385 130.248 38.1332C130.613 37.2458 131.12 36.4295 131.748 35.7192C132.443 34.9442 133.312 34.3628 134.278 34.0281C135.323 33.6689 136.436 33.5782 137.521 33.7635C138.09 33.8564 138.646 34.0212 139.177 34.254L140.82 34.8995C145.247 36.7132 150.177 38.8109 155.491 41.0829L155.305 41.1475L164.178 25.6566L164.259 25.5146L164.395 25.5985L167.614 27.5349L173.337 30.9364L173.473 31.0138L173.399 31.1558C171.644 34.6413 169.914 38.017 168.215 41.2378C167.359 42.8515 166.516 44.4264 165.66 45.9561C164.805 47.4858 164.147 49.0543 163.254 50.4743C162.421 51.8916 161.275 53.082 159.912 53.9468C159.251 54.3529 158.531 54.643 157.779 54.8053C157.048 54.8925 156.309 54.8925 155.578 54.8053C152.959 54.4513 150.369 53.8991 147.827 53.1529C143.164 51.862 139.481 50.5711 136.951 49.7191C134.421 48.8671 133.044 48.312 133.044 48.312C133.134 48.3202 133.221 48.342 133.305 48.3765L134.061 48.6218L136.982 49.6029C139.53 50.4355 143.22 51.6683 147.877 52.9334C150.411 53.6636 152.993 54.2008 155.603 54.5406C156.314 54.6246 157.031 54.6246 157.742 54.5406C158.458 54.3777 159.145 54.0966 159.776 53.708C161.099 52.8608 162.209 51.6968 163.013 50.3129C163.893 48.9252 164.55 47.3438 165.406 45.7947C166.262 44.2456 167.093 42.6966 167.942 41.0894C169.635 37.8621 171.365 34.4864 173.114 31.0009L173.182 31.2268L167.44 27.8382L164.228 25.9019L164.445 25.8438C161.307 31.2914 158.306 36.5196 155.553 41.3346L155.485 41.4508L155.367 41.3992C150.078 39.1207 145.117 37.0101 140.727 35.1706L139.09 34.5251C138.576 34.293 138.037 34.1282 137.484 34.0346C136.435 33.852 135.359 33.9338 134.346 34.2734C133.413 34.5934 132.572 35.1501 131.897 35.8935C131.282 36.5792 130.781 37.3666 130.415 38.2236C130.242 38.6201 130.093 39.0276 129.969 39.4435C129.845 39.8436 129.795 40.2567 129.708 40.644C129.621 41.0313 129.628 41.425 129.646 41.7994C129.655 42.1609 129.69 42.5213 129.752 42.8773C129.959 44.0518 130.412 45.1646 131.079 46.1368C131.487 46.7486 131.959 47.3114 132.486 47.815C132.66 47.9893 132.802 48.1119 132.902 48.1958L133.044 48.312Z" fill="#263238"/>
<path d="M143.176 81.3786L145.13 77.2606L158.796 77.5123L157.277 81.7723L143.176 81.3786Z" fill="#455A64"/>
<path d="M143.176 81.3786H144.286H147.263C149.786 81.4173 153.277 81.469 157.283 81.5722L157.128 81.682C157.593 80.3911 158.077 79.0163 158.579 77.6156L158.647 77.422L158.796 77.6479C153.29 77.5446 148.379 77.4349 145.154 77.3381L145.247 77.28L143.747 80.2555C143.579 80.5847 143.443 80.8493 143.337 81.0688C143.29 81.1693 143.236 81.2664 143.176 81.3593C143.176 81.3593 143.176 81.2753 143.282 81.0946C143.387 80.9139 143.499 80.617 143.641 80.2878L145.037 77.1961V77.1315H145.117C148.366 77.1315 153.277 77.2219 158.759 77.3252H158.988L158.908 77.5446L158.839 77.7383L157.388 81.7982L157.345 81.9079H157.233C153.153 81.7852 149.594 81.6432 147.089 81.54L144.162 81.4173L143.393 81.3786C143.321 81.3845 143.249 81.3845 143.176 81.3786Z" fill="#263238"/>
<path d="M152.297 39.437C152.254 39.5209 148.794 37.5394 144.565 35.0156C140.336 32.4919 136.95 30.3813 136.994 30.3038C137.037 30.2264 140.497 32.2015 144.726 34.7252C148.955 37.2489 152.347 39.3595 152.297 39.437Z" fill="#263238"/>
<path d="M157.022 70.4962C157.022 70.5866 153.73 70.4446 149.674 70.1735C145.619 69.9024 142.333 69.6119 142.339 69.528C142.345 69.4441 145.638 69.5797 149.693 69.8508C153.748 70.1219 157.029 70.4059 157.022 70.4962Z" fill="#263238"/>
<path d="M184.907 28.5547L186.284 26.1407L191.74 29.4584L190.68 32.0789L184.907 28.5547Z" fill="#E0E0E0"/>
<path d="M177.882 45.5237C177.282 44.896 176.826 44.1349 176.549 43.2976C176.272 42.4603 176.18 41.5685 176.282 40.6892C176.375 40.6892 176.406 41.851 176.852 43.1871C177.299 44.5232 177.981 45.4656 177.882 45.5237Z" fill="#263238"/>
<path d="M164.531 47.8279C165.059 49.1339 165.488 50.4805 165.815 51.8556C166.245 53.2009 166.571 54.5802 166.788 55.98C166.263 54.6733 165.834 53.3268 165.505 51.9524C165.074 50.6071 164.749 49.2278 164.531 47.8279Z" fill="#263238"/>
<path d="M156.16 46.1433C155.607 45.4717 155.241 44.6559 155.1 43.7836C154.959 42.9114 155.049 42.0156 155.361 41.1927C155.32 42.0386 155.34 42.8866 155.423 43.7293C155.609 44.5523 155.856 45.3593 156.16 46.1433Z" fill="#263238"/>
<path opacity="0.3" d="M144.274 81.4044L144.032 82.6501L158.182 83.0632L158.796 77.5123L157.277 81.7723L144.274 81.4044Z" fill="black"/>
<path d="M150.499 34.5251L150.648 34.693L152.21 35.8419L152.992 35.3836L152.483 33.5828L150.834 32.2919L150.499 34.5251Z" fill="#F18701"/>
<path d="M152.608 32.2919C152.777 32.7961 152.896 33.3175 152.961 33.8474L153.011 34.1249L152.781 33.9571C152.236 33.5569 151.541 33.0277 150.741 32.4209L150.989 32.3177C150.915 32.8276 150.834 33.3633 150.754 33.9184C150.698 34.254 150.648 34.5639 150.605 34.893L150.568 35.1189L150.375 35.0157C149.185 34.4089 148.149 33.8668 147.411 33.4601C147.002 33.2696 146.613 33.0337 146.252 32.7566C146.683 32.8772 147.099 33.0482 147.492 33.2665C148.255 33.615 149.315 34.1249 150.506 34.7188L150.282 34.8414L150.425 33.8668C150.512 33.3117 150.593 32.776 150.673 32.2725L150.717 32.0014L150.921 32.1628C151.702 32.8082 152.391 33.3439 152.912 33.7764L152.732 33.8861C152.639 33.3604 152.598 32.8263 152.608 32.2919Z" fill="#263238"/>
</svg>
